<svg xmlns="http://www.w3.org/2000/svg" width="1500" height="393" fill="none" viewBox="0 0 1500 393"><mask id="mask0" width="1500" height="393" x="0" y="0" mask-type="alpha" maskUnits="userSpaceOnUse"><rect width="1500" height="393" fill="#1B1C20"/></mask><g mask="url(#mask0)"><circle cx="750" cy="349" r="520.893" fill="url(#paint0_linear)" transform="rotate(-180 750 349)"/><circle cx="750" cy="349" r="520.893" fill="url(#paint1_linear)" transform="rotate(72.6467 750 349)"/><circle cx="750" cy="349" r="520.893" fill="url(#paint2_linear)" transform="rotate(-26.8496 750 349)"/><circle cx="750" cy="348.61" r="520.893" fill="url(#paint3_linear)" transform="rotate(-180 750 348.61)"/><circle cx="750" cy="348.61" r="520.893" fill="url(#paint4_linear)" transform="rotate(72.6467 750 348.61)"/><circle cx="750" cy="348.61" r="520.893" fill="url(#paint5_linear)" transform="rotate(-26.8496 750 348.61)"/></g><defs><linearGradient id="paint0_linear" x1="229.107" x2="911.871" y1="349" y2="349" gradientUnits="userSpaceOnUse"><stop stop-color="#FFB92F"/><stop offset="1" stop-color="#FFB92F" stop-opacity="0"/></linearGradient><linearGradient id="paint1_linear" x1="229.107" x2="893.856" y1="349" y2="354.817" gradientUnits="userSpaceOnUse"><stop stop-color="#00A1EF"/><stop offset="1" stop-color="#00A1EF" stop-opacity="0"/></linearGradient><linearGradient id="paint2_linear" x1="229.107" x2="949.514" y1="349" y2="354.631" gradientUnits="userSpaceOnUse"><stop stop-color="#3AE2CB"/><stop offset="1" stop-color="#3AE2CB" stop-opacity="0"/></linearGradient><linearGradient id="paint3_linear" x1="229.107" x2="911.871" y1="348.61" y2="348.61" gradientUnits="userSpaceOnUse"><stop stop-color="#006EC1"/><stop offset="1" stop-color="#006EC1" stop-opacity="0"/></linearGradient><linearGradient id="paint4_linear" x1="229.107" x2="893.856" y1="348.61" y2="354.427" gradientUnits="userSpaceOnUse"><stop stop-color="#00B8AA"/><stop offset="1" stop-color="#00B8AA" stop-opacity="0"/></linearGradient><linearGradient id="paint5_linear" x1="229.107" x2="949.514" y1="348.61" y2="354.242" gradientUnits="userSpaceOnUse"><stop stop-color="#FF6449"/><stop offset="1" stop-color="#FF6449" stop-opacity="0"/></linearGradient></defs></svg>