<svg xmlns="http://www.w3.org/2000/svg" xmlns:xlink="http://www.w3.org/1999/xlink" width="64" height="64" version="1.1" viewBox="0 0 64 64"><title>icon-winlogbeat-64-color</title><desc>Created with Sketch.</desc><g id="icon-winlogbeat-64-color" fill="none" fill-rule="evenodd" stroke="none" stroke-width="1"><rect id="Rectangle" width="64" height="64" x="0" y="0" fill-rule="nonzero"/><g id="Group" fill-rule="nonzero" transform="translate(5.000000, 5.000000)"><polygon id="Stroke-1" fill="#00BFB2" points="0 29 0 26 55 26 55 29"/><polygon id="Stroke-3" fill="#00BFB2" points="26 0 29 0 29 55 26 55"/><polygon id="Stroke-5" fill="#535966" points="3 3 3 22 0 22 0 0 22 0 22 3"/><polygon id="Stroke-7" fill="#535966" points="33 3 33 0 55 0 55 22 52 22 52 3"/><polygon id="Stroke-9" fill="#535966" points="22 52 22 55 0 55 0 33 3 33 3 52"/><polygon id="Stroke-11" fill="#535966" points="52 52 52 33 55 33 55 55 33 55 33 52"/></g></g></svg>