<svg xmlns="http://www.w3.org/2000/svg" xmlns:xlink="http://www.w3.org/1999/xlink" width="64" height="64" version="1.1" viewBox="0 0 64 64"><title>icon-language-clients-64-color</title><desc>Created with Sketch.</desc><g id="icon-language-clients-64-color" fill="none" fill-rule="evenodd" stroke="none" stroke-width="1"><rect id="Rectangle" width="64" height="64" x="0" y="0" fill-rule="nonzero"/><g id="Group" fill-rule="nonzero" transform="translate(4.000000, 6.000000)"><polygon id="Stroke-1" fill="#00BFB2" points="34 25 34 22 45 22 45 25"/><polygon id="Stroke-2" fill="#00BFB2" points="20 25 20 22 31 22 31 25"/><path id="Stroke-3" fill="#535966" d="M51.5,50 C52.3285729,50 53,49.3285729 53,48.5 L53,4.5 C53,3.67142712 52.3285729,3 51.5,3 L4.5,3 C3.67142712,3 3,3.67142712 3,4.5 L3,48.5 C3,49.3285729 3.67142712,50 4.5,50 L51.5,50 Z M51.5,53 L4.5,53 C2.01457288,53 -4.61852778e-14,50.9854271 -4.61852778e-14,48.5 L-4.61852778e-14,4.5 C-4.61852778e-14,2.01457288 2.01457288,0 4.5,0 L51.5,0 C53.9854271,0 56,2.01457288 56,4.5 L56,48.5 C56,50.9854271 53.9854271,53 51.5,53 Z"/><polygon id="Stroke-5" fill="#535966" points="0 11 0 8 55 8 55 11"/><polygon id="Stroke-7" fill="#535966" points="16.891 28.271 14.708 30.329 8.459 23.7 14.708 17.071 16.891 19.129 12.582 23.7"/><polygon id="Stroke-9" fill="#00BFB2" points="22 36 22 39 11 39 11 36"/><polygon id="Stroke-11" fill="#00BFB2" points="36 36 36 39 25 39 25 36"/><polygon id="Stroke-13" fill="#535966" points="38.629 33.129 40.812 31.071 47.062 37.701 40.811 44.329 38.629 42.27 42.939 37.7"/></g></g></svg>